<svg width="66" height="51" viewBox="0 0 66 51" fill="none" xmlns="http://www.w3.org/2000/svg">
<g clip-path="url(#clip0_630_137)">
<path d="M49.5901 22.3601C49.0502 20.4785 48.0001 19.0771 46.2007 18.3276C44.3742 17.5664 42.6494 17.8579 41.0029 18.865C39.3384 14.9523 36.5312 12.8755 32.566 12.5437C32.5326 12.5723 32.5005 12.601 32.4684 12.6322C32.2524 12.8378 31.9992 12.9679 31.737 13.0278C31.5224 13.1488 31.3013 13.2607 31.0777 13.3648C31.0661 13.4116 31.0545 13.4572 31.0391 13.5027C31.2203 13.4559 31.4131 13.4324 31.6162 13.4194C31.7396 13.4116 31.8617 13.4064 31.9851 13.4038C35.7189 13.3283 38.9965 15.707 40.2291 19.3855C40.4964 20.1832 40.6198 20.2222 41.2831 19.7251C41.2998 19.7134 41.3152 19.6991 41.3319 19.6874C43.7175 17.919 47.0207 18.7258 48.3304 21.4141C48.5374 21.837 48.6698 22.3002 48.7983 22.757C48.9885 23.4323 49.0631 23.4818 49.7469 23.2618C49.8304 23.2345 49.9152 23.2124 50.0078 23.189L50.2931 22.2534C50.0528 22.2898 49.8266 22.325 49.5875 22.3614" fill="white"/>
<path d="M64.4971 30.6099C64.1758 28.7466 63.073 27.5651 61.2826 27.0914C60.6605 26.9275 59.9908 26.9496 59.2646 26.878C58.4857 25.1045 57.1991 23.72 55.374 22.8716L55.1773 23.7291C55.23 23.7473 55.2711 23.7629 55.3097 23.7837C56.7493 24.5332 57.7749 25.6757 58.4433 27.1591C58.7685 27.88 58.7659 27.8813 59.5281 27.7993C59.6297 27.7889 59.7312 27.7733 59.834 27.7694C60.8828 27.7225 61.8186 28.0231 62.6039 28.7362C63.6026 29.6431 63.9637 31.1174 63.4997 32.3093C63.0332 33.5052 62.1849 34.0191 60.6643 34.0204C58.4934 34.023 56.3238 34.023 54.1542 34.023C53.991 34.023 53.8265 34.0191 53.6632 34.0334C53.4254 34.0543 53.2558 34.2104 53.2879 34.4342C53.3085 34.5774 53.473 34.7335 53.6105 34.8168C53.7198 34.8831 53.8894 34.8597 54.0308 34.8597C56.3444 34.8597 58.658 34.8675 60.9715 34.8532C61.3558 34.8506 61.753 34.8038 62.1206 34.6932C63.7247 34.2117 64.8018 32.3653 64.4984 30.6086" fill="white"/>
<path d="M59.6438 13.0864C59.5487 13.0539 59.4433 13.0448 59.343 13.037C58.6078 12.9823 57.8726 12.9355 57.1387 12.8782C56.7133 12.847 56.2878 12.804 55.8727 12.7663C55.5179 11.8568 55.1825 10.9888 54.8406 10.1248C54.7339 9.85548 54.6324 9.58092 54.4884 9.33239C54.2943 8.99537 53.964 9.00318 53.7686 9.3402C53.6555 9.53538 53.581 9.75398 53.4961 9.96348C53.1157 10.8978 52.7378 11.832 52.3522 12.7819C51.2802 12.8639 50.2404 12.942 49.2006 13.0226C49.0374 13.0357 48.8703 13.0357 48.7135 13.076C48.2636 13.1918 48.1736 13.5119 48.495 13.845C48.6376 13.9921 48.8009 14.1196 48.959 14.251C49.7186 14.8782 50.4795 15.5028 51.2533 16.1391C50.9666 17.2087 50.6813 18.2653 50.4037 19.3232C50.1685 20.221 50.2404 20.3134 51.1581 20.2483C51.1324 20.3446 51.0977 20.4721 51.0579 20.6205C50.8188 21.5001 50.3792 23.0993 50.3792 23.0993C50.3818 23.0993 50.3857 23.0967 50.3882 23.0967C50.2867 23.4988 50.2134 23.8163 50.126 24.1299C48.9513 28.3601 47.5348 32.5071 45.9668 36.602C45.8999 36.7764 45.8099 36.9508 45.7984 37.1303C45.7907 37.2461 45.8832 37.4465 45.9706 37.4739C46.0953 37.5116 46.2958 37.4661 46.3935 37.3776C46.504 37.2761 46.5426 37.09 46.6017 36.9352C46.8575 36.2624 47.1107 35.5884 47.369 34.8988C48.6878 34.7673 49.9641 34.6398 51.2905 34.5084C51.2494 34.6997 51.2327 34.8194 51.1993 34.9313C50.9679 35.7042 50.7327 36.4758 50.5001 37.2488C50.4589 37.3867 50.3921 37.535 50.4114 37.6677C50.4281 37.7888 50.5283 37.9566 50.6273 37.9891C50.7263 38.0204 50.9024 37.9397 50.9859 37.8512C51.0772 37.7536 51.1093 37.5949 51.1556 37.4582C51.3304 36.9273 51.5039 36.3965 51.671 35.8643C52.874 32.0335 53.8599 28.1428 54.8457 24.2522C54.8611 24.1884 55.3251 22.1 55.6478 20.6205C55.766 20.0792 55.865 19.6198 55.9177 19.37C56.3303 19.638 56.685 19.871 57.0436 20.0987C57.266 20.2392 57.4922 20.437 57.7647 20.2119C58.0025 20.0154 57.9112 19.7682 57.8431 19.5248C57.6271 18.7467 57.4163 17.9686 57.2068 17.1905C57.1104 16.8339 57.0243 16.4761 56.9331 16.1117C57.7801 15.4351 58.5976 14.7819 59.415 14.1274C59.559 14.0116 59.7145 13.9036 59.8353 13.7656C60.0692 13.4963 59.9831 13.2061 59.6451 13.0877M51.5759 33.7563C50.2687 33.8825 49.0335 34.0022 47.7405 34.1271C47.7611 33.9736 47.7585 33.8578 47.7932 33.755C48.0027 33.1291 48.2328 32.5097 48.4307 31.8812C48.5091 31.634 48.6196 31.4935 48.8896 31.4752C49.9859 31.4037 51.081 31.3217 52.2828 31.2358C52.0373 32.1102 51.8137 32.9105 51.5759 33.7563ZM52.4769 30.4889C51.2648 30.5813 50.0939 30.6711 48.8407 30.7661C49.1094 29.9437 49.351 29.2059 49.6055 28.4291C50.7661 28.3081 51.9139 28.1884 53.1285 28.0621C52.8997 28.9157 52.6928 29.6874 52.4782 30.4889M53.3149 27.2996C52.1813 27.4311 51.0553 27.5612 49.8317 27.7017C50.0772 26.8715 50.2983 26.1259 50.5219 25.3699C51.6491 25.2814 52.7378 25.1956 53.8946 25.1045C53.6928 25.8683 53.5116 26.5592 53.3149 27.3009M54.1863 23.8384V23.841C54.1478 23.9997 54.1118 24.1559 54.0707 24.3263C52.9897 24.433 51.9191 24.5397 50.7417 24.6569C50.9538 23.8553 51.1453 23.1318 51.3432 22.3862C52.4178 22.3094 53.4537 22.2353 54.5437 22.1559C54.5308 22.2912 54.2211 23.6926 54.1863 23.8384ZM54.7635 21.3921C53.6979 21.4832 52.671 21.5704 51.5579 21.664C51.6414 21.2997 51.7185 20.9549 51.7957 20.6205C51.8676 20.3069 51.9383 20.0037 52.0142 19.6992C52.036 19.6107 52.1183 19.5196 52.1967 19.465C52.8175 19.0369 53.4434 18.6179 54.0925 18.1807C54.518 18.4539 54.8766 18.6856 55.2853 18.9484C55.167 19.5027 55.0475 20.0544 54.9267 20.6205C54.8727 20.8742 54.8174 21.1305 54.7622 21.3921M58.2647 14.1807C57.6875 14.6427 57.1014 15.0942 56.5256 15.5587C56.1118 15.8918 56.1118 15.9244 56.2673 16.4553C56.5269 17.3427 56.7814 18.2301 56.9498 19.1956C56.7184 19.0486 56.4858 18.9016 56.2544 18.7519C55.6696 18.3733 55.0809 17.9998 54.5013 17.6107C54.2056 17.413 53.946 17.4286 53.6568 17.6329C53.036 18.0688 52.4023 18.4865 51.7712 18.9094C51.6042 19.0213 51.4281 19.1215 51.1851 19.2711C51.2173 19.0603 51.225 18.925 51.2597 18.7988C51.4666 18.0636 51.653 17.3193 51.9023 16.5997C52.0707 16.1156 52.0013 15.7851 51.5823 15.4793C51.0373 15.0786 50.5271 14.6284 50.0039 14.1976C49.8523 14.0727 49.7096 13.9361 49.4757 13.7253C50.3175 13.6589 51.0412 13.6004 51.7661 13.547C51.9499 13.534 52.1337 13.5262 52.3175 13.5314C52.6967 13.5418 52.91 13.3675 53.0437 13.0031C53.3625 12.1326 53.7159 11.2751 54.0977 10.3044C54.2301 10.5829 54.3316 10.7702 54.41 10.9654C54.6748 11.6147 54.955 12.2601 55.1812 12.9238C55.3329 13.3688 55.6002 13.5275 56.0462 13.5405C56.8431 13.5627 57.6374 13.6264 58.433 13.6759C58.5076 13.6798 58.5821 13.6967 58.7724 13.7227C58.5513 13.9231 58.415 14.0623 58.2634 14.182" fill="white"/>
<path d="M10.528 21.5456C10.6938 20.9354 10.8172 20.3485 11.0139 19.7864C12.1475 16.5542 15.3865 14.1053 19.0124 14.3928C21.4635 14.588 23.3966 15.7474 24.8927 17.6927C24.9557 17.7734 25.011 17.8619 25.0585 17.953C25.1601 18.1442 25.1189 18.3199 24.9608 18.4552C24.7732 18.6166 24.574 18.5828 24.4107 18.4188C24.2809 18.2887 24.1832 18.126 24.0675 17.9816C22.6254 16.1872 20.7514 15.2282 18.479 15.1827C16.5857 15.1449 14.9804 15.9465 13.6244 17.2503C12.4123 18.4162 11.6822 19.8475 11.456 21.5339C11.3403 22.3979 11.3352 22.3979 10.4869 22.4357C7.74917 22.558 5.1734 24.7427 4.49347 27.5208C4.07959 29.2137 4.2017 30.8507 4.99731 32.4147C5.11813 32.6528 5.26851 32.878 5.41761 33.1005C5.84048 33.7316 6.34175 34.0517 7.1862 34.049C19.7772 34.0113 32.3681 34.0191 44.9591 34.0178C45.1223 34.0178 45.31 33.9814 45.4423 34.049C45.5812 34.1206 45.7213 34.2846 45.7611 34.4342C45.8151 34.6359 45.6686 34.7894 45.4603 34.8259C45.2997 34.8532 45.1339 34.8558 44.9706 34.8558C37.5184 34.8584 30.0661 34.8597 22.6139 34.8597C17.3312 34.8597 12.0498 34.848 6.76719 34.8688C6.13996 34.8714 5.67339 34.6801 5.24409 34.239C4.30067 33.2735 3.7814 32.0972 3.53333 30.7921C2.92667 27.5924 4.37779 24.312 7.12194 22.6191C8.06664 22.0362 8.95994 21.7512 10.5267 21.5443" fill="white"/>
<path d="M5.95744 29.4596C6.08983 27.2944 6.94199 25.6106 8.88667 24.6022C9.01263 24.5371 9.15402 24.4525 9.28384 24.4564C9.42394 24.4616 9.56146 24.5618 9.70028 24.6204C9.63858 24.757 9.59617 24.9093 9.50748 25.0238C9.45221 25.0953 9.32497 25.1057 9.23242 25.15C7.57437 25.9372 6.49984 27.7915 6.62709 29.6496C6.63866 29.8149 6.6965 29.9892 6.65922 30.1415C6.6258 30.2781 6.49213 30.39 6.40344 30.5123C6.28648 30.4199 6.10397 30.3484 6.06669 30.2299C5.98829 29.9788 5.987 29.7029 5.95615 29.4596" fill="white"/>
<path d="M17.3261 17.223C17.1628 17.3791 17.0677 17.5119 16.9392 17.5821C16.7618 17.6797 16.551 17.7136 16.3672 17.7994C14.9714 18.4566 14.0498 19.5327 13.6064 21.0252C13.5652 21.1631 13.5601 21.3244 13.4842 21.4363C13.4148 21.5378 13.2336 21.668 13.1668 21.638C13.046 21.5834 12.9277 21.4311 12.893 21.2971C12.8609 21.1722 12.929 21.0148 12.9714 20.8768C13.5344 19.0707 14.6783 17.7968 16.4083 17.0721C16.5741 17.0031 16.7644 16.9497 16.9392 16.9575C17.0497 16.9628 17.1538 17.0968 17.3261 17.2204" fill="white"/>
<path d="M38.2471 19.3219C38.107 19.184 37.9875 19.1059 37.9232 18.9953C37.76 18.7104 37.6366 18.402 37.4682 18.1196C37.0389 17.3987 36.4541 16.8327 35.7343 16.4085C35.611 16.3356 35.4644 16.2849 35.3757 16.1821C35.3102 16.1053 35.2665 15.9258 35.3115 15.8555C35.3757 15.7553 35.5223 15.6837 35.6457 15.659C35.7279 15.6434 35.8346 15.7215 35.9233 15.7709C37.0916 16.4228 37.9168 17.3909 38.4605 18.6128C38.5081 18.7208 38.5492 18.8626 38.5183 18.9667C38.4836 19.0825 38.3654 19.1736 38.2458 19.3206" fill="white"/>
<path d="M44.5516 19.8228C45.1969 19.8033 45.7444 20.0558 46.238 20.4461C46.3459 20.532 46.468 20.6465 46.4989 20.7688C46.5272 20.882 46.4719 21.0551 46.3909 21.1423C46.3356 21.2034 46.1698 21.1826 46.0606 21.1618C45.9899 21.1488 45.9269 21.072 45.8678 21.0174C45.3845 20.571 44.8177 20.4058 44.175 20.5008C43.9257 20.5385 43.6288 20.588 43.6044 20.2418C43.5825 19.9282 43.8743 19.8762 44.1262 19.8489C44.2676 19.8332 44.4102 19.8306 44.5529 19.8228" fill="white"/>
<path d="M49.5399 6.91333C49.6003 6.96538 49.7327 7.03435 49.8021 7.14495C50.1787 7.73701 50.5386 8.33947 50.9049 8.93803C51.0296 9.14232 51.0373 9.3349 50.8098 9.46893C50.6042 9.59124 50.4499 9.47934 50.3445 9.31018C49.9628 8.69731 49.5785 8.08573 49.2199 7.45724C49.0592 7.17618 49.2019 6.91203 49.5387 6.91333" fill="white"/>
<path d="M54.6272 6.10412C54.6272 6.49579 54.6298 6.88876 54.6259 7.28042C54.6233 7.48211 54.5617 7.66428 54.329 7.67469C54.0617 7.6877 53.9845 7.49512 53.9833 7.26611C53.9794 6.48147 53.9807 5.69814 53.9781 4.9135C53.9781 4.7001 54.0527 4.54005 54.2789 4.52574C54.5488 4.50882 54.6221 4.6923 54.6221 4.92782C54.6221 5.31948 54.6221 5.71245 54.6221 6.10412H54.6272Z" fill="white"/>
<path d="M62.8172 15.0317C62.4278 15.0317 62.0396 15.0356 61.6502 15.0304C61.4432 15.0278 61.2697 14.9341 61.2787 14.709C61.2877 14.5021 61.4342 14.3798 61.654 14.3798C62.4111 14.3798 63.1694 14.3759 63.9265 14.3772C64.1398 14.3772 64.2915 14.4826 64.2928 14.7051C64.2941 14.9367 64.1295 15.0239 63.9213 15.0265C63.5524 15.0304 63.1848 15.0265 62.816 15.0265V15.0304L62.8172 15.0317Z" fill="white"/>
<path d="M57.9639 9.53142C57.8649 9.37397 57.7415 9.24776 57.7081 9.10072C57.6863 9.00833 57.7904 8.87691 57.8533 8.77411C58.1631 8.26794 58.4793 7.76437 58.7942 7.26079C58.8379 7.19183 58.8777 7.09033 58.9407 7.06952C59.077 7.02527 59.2749 6.95891 59.3572 7.02137C59.442 7.08643 59.4895 7.33366 59.4343 7.43386C59.1271 7.98948 58.7826 8.52428 58.451 9.06428C58.397 9.15147 58.352 9.24906 58.2826 9.31932C58.2158 9.38829 58.1207 9.42993 57.9652 9.53012" fill="white"/>
<path d="M45.8523 14.3641C46.1981 14.3641 46.5438 14.3641 46.8883 14.3641C47.0901 14.3641 47.2688 14.4305 47.2829 14.6582C47.2996 14.9184 47.1248 15.016 46.8909 15.016C46.1595 15.0186 45.4269 15.0199 44.6956 15.0186C44.4963 15.0186 44.3164 14.9575 44.2997 14.7271C44.2804 14.4591 44.4668 14.3758 44.6943 14.3719C45.0799 14.3667 45.4667 14.3706 45.8523 14.3706V14.3628V14.3641Z" fill="white"/>
<path d="M48.378 11.2399C48.3793 11.5353 48.1415 11.6927 47.8986 11.5821C47.6582 11.4728 47.4359 11.3206 47.2071 11.1852C46.9076 11.0083 46.594 10.8495 46.3202 10.6387C46.2264 10.5671 46.1595 10.3277 46.2084 10.2327C46.2585 10.1351 46.5091 10.0389 46.5978 10.0857C47.1582 10.3798 47.7006 10.709 48.2417 11.0395C48.3163 11.085 48.351 11.1995 48.378 11.2412" fill="white"/>
<path d="M62.5409 10.4358C62.4946 10.4931 62.4368 10.6115 62.343 10.6713C61.861 10.9771 61.3713 11.2699 60.8816 11.5653C60.6952 11.6772 60.5191 11.6577 60.4111 11.4625C60.307 11.2751 60.3572 11.1033 60.5487 10.9914C61.0576 10.6922 61.5628 10.3812 62.0808 10.1001C62.3147 9.97259 62.5602 10.1417 62.5396 10.4371" fill="white"/>
<path d="M19.1319 17.1502C19.0355 17.227 18.9237 17.3844 18.7836 17.4144C18.5689 17.4612 18.3903 17.3415 18.3684 17.0917C18.3492 16.8705 18.479 16.7481 18.6859 16.7312C18.9134 16.713 19.0676 16.8184 19.1319 17.1502Z" fill="white"/>
<path d="M34.6058 15.5457C34.3758 15.6927 34.2421 15.8411 34.1084 15.8398C34.012 15.8398 33.8539 15.6511 33.8346 15.5288C33.7999 15.3167 33.9632 15.1696 34.1675 15.2087C34.2922 15.2321 34.3963 15.3778 34.6046 15.5457" fill="white"/>
<path d="M36.9695 8.39156C35.7523 8.3226 34.5634 9.05909 33.7331 9.9309C33.7048 9.89577 33.6714 9.86454 33.6329 9.83722C33.6316 9.83722 33.629 9.83592 33.6277 9.83461C34.2459 8.89253 35.1971 8.02332 36.3063 7.85156C36.3821 7.83984 36.368 7.72013 36.2922 7.73184C35.1405 7.91011 34.1624 8.80405 33.5236 9.77866C33.3064 9.69148 33.0506 9.76305 32.9105 9.96474C32.809 10.1092 32.791 10.2874 32.8462 10.4423C32.7421 10.5204 32.629 10.6114 32.5069 10.7155C32.9979 9.41822 33.7087 6.88085 32.764 4.84183C32.1946 3.61348 31.7563 2.86919 31.4337 2.28364C31.3527 2.1366 31.2794 1.99997 31.2126 1.86855C31.2126 1.86855 31.2126 1.86725 31.2126 1.86595C31.192 1.82561 31.1728 1.78527 31.1535 1.74623C31.1496 1.73713 31.1445 1.72802 31.1406 1.71891C31.1252 1.68768 31.1111 1.65515 31.0969 1.62392C31.0918 1.61221 31.0866 1.6005 31.0815 1.58879C31.0686 1.56016 31.0558 1.53023 31.0442 1.5016C31.0391 1.48859 31.0339 1.47688 31.0288 1.46387C31.0172 1.43524 31.0057 1.40531 30.9941 1.37669C30.989 1.36498 30.9851 1.35327 30.98 1.34025C30.9684 1.30902 30.9568 1.27649 30.9453 1.24396C30.9427 1.23485 30.9388 1.22575 30.9363 1.21664C30.908 1.13336 30.8836 1.04878 30.8604 0.960297C30.8579 0.948586 30.8553 0.938177 30.8527 0.926466C30.845 0.893935 30.8373 0.861405 30.8296 0.827573C30.8257 0.811958 30.8232 0.796344 30.8193 0.779428C30.8129 0.7495 30.8077 0.719572 30.8026 0.689644C30.7987 0.671427 30.7962 0.65321 30.7936 0.634993C30.7884 0.605065 30.7833 0.575136 30.7794 0.543907C30.7769 0.524389 30.7743 0.506172 30.7717 0.485352C30.7679 0.454123 30.764 0.421593 30.7602 0.389062C30.7576 0.369544 30.7563 0.350025 30.7537 0.330507C30.7499 0.295374 30.7473 0.257639 30.7435 0.221205C30.7422 0.202988 30.7396 0.186072 30.7383 0.167855C30.7345 0.111902 30.7306 0.0559498 30.728 -0.00390625C30.728 -0.00390625 29.399 1.43004 27.4518 2.90952C25.5032 4.38901 24.7063 8.29007 27.4518 10.0376C27.4518 10.0376 24.6382 8.80665 22.4917 10.3512C20.4712 11.8047 20.2334 13.2646 19.4802 13.0408C19.4802 13.0408 19.4802 13.0408 19.4815 13.0421C19.4815 13.0421 19.4815 13.0421 19.4828 13.0434C19.4841 13.0447 19.4867 13.046 19.488 13.0486C19.7489 13.2776 25.3323 18.0974 30.1239 13.9699C29.8617 14.5281 29.615 15.1592 29.4016 15.8697C29.4016 15.8697 32.3617 13.9998 33.2922 10.7845C33.4696 10.7988 33.6483 10.722 33.7588 10.5646C33.8719 10.4019 33.8809 10.1951 33.7999 10.0285C34.6033 9.1749 35.7742 8.43971 36.9605 8.50737C37.0377 8.51127 37.0466 8.39156 36.9708 8.38766" fill="white"/>
<path d="M56.2673 16.4553C56.5269 17.3427 56.7814 18.2302 56.9498 19.1957C56.7184 19.0486 56.4858 18.9016 56.2544 18.752C55.6696 18.3733 55.0809 17.9999 54.5012 17.6108C54.2056 17.413 53.946 17.4286 53.6568 17.6329C53.036 18.0688 52.4023 18.4865 51.7712 18.9094C51.6041 19.0213 51.4281 19.1215 51.1851 19.2711C51.2173 19.0604 51.225 18.925 51.2597 18.7988C51.4666 18.0636 51.653 17.3206 51.9023 16.5997C52.0707 16.1157 52.0013 15.7852 51.5823 15.4794C51.0373 15.0786 50.5271 14.6284 50.0039 14.1977C49.8523 14.0728 49.7096 13.9361 49.4757 13.7254C50.3175 13.659 51.0412 13.6004 51.7661 13.5471C51.9499 13.5328 52.135 13.5263 52.3175 13.5315C52.6967 13.5419 52.91 13.3675 53.0437 13.0032C53.3625 12.1327 53.7159 11.2752 54.0977 10.3044C54.23 10.5829 54.3316 10.7703 54.4113 10.9655C54.676 11.6148 54.9562 12.2602 55.1825 12.9238C55.3341 13.3688 55.6015 13.5289 56.0475 13.5406C56.8431 13.5627 57.6387 13.6265 58.4343 13.6759C58.5089 13.6798 58.5834 13.6967 58.7736 13.7227C58.5526 13.9231 58.4163 14.0624 58.2647 14.1834C57.6875 14.6453 57.1014 15.0968 56.5256 15.5614C56.1117 15.8945 56.1117 15.927 56.2673 16.4579" fill="white"/>
<path d="M5.13616 48.6787C4.77242 48.762 4.39068 48.7932 3.99223 48.775C3.75573 48.7568 3.52052 48.7178 3.28402 48.6579C3.04752 48.598 2.8573 48.4757 2.71206 48.2923C2.63879 48.2012 2.58224 48.101 2.54111 47.9956C2.49998 47.8902 2.46656 47.7861 2.43957 47.6846C2.40358 47.5193 2.38301 47.3515 2.37787 47.181C2.37273 47.0106 2.37145 46.8388 2.37145 46.6631C2.37145 46.2676 2.39587 45.872 2.446 45.4764C2.49612 45.0808 2.55268 44.6879 2.61694 44.2975C2.67992 43.9071 2.73905 43.5129 2.79432 43.1186C2.8483 42.723 2.88557 42.3275 2.90357 41.9332C2.47684 41.9879 2.05397 42.0165 1.63625 42.0165C1.509 42.0074 1.37918 41.9983 1.24808 41.9892C1.11698 41.98 0.987161 41.9527 0.859915 41.9059C0.732669 41.8603 0.61442 41.7914 0.505168 41.699C0.395916 41.6079 0.3098 41.5012 0.246819 41.3815C0.192836 41.28 0.151706 41.1772 0.124714 41.0705C0.0977226 40.9651 0.074587 40.8571 0.0565925 40.7465C0.0206037 40.563 0.00260925 40.3769 0.00260925 40.1883V39.6157C0.00260925 39.4323 0.00517989 39.2436 0.00903583 39.0497C0.0128918 38.8571 0.0334568 38.6684 0.070731 38.4837C0.0977226 38.3366 0.138853 38.1935 0.192836 38.0556C0.246819 37.9176 0.323938 37.7979 0.424193 37.6964C0.524448 37.5858 0.643982 37.496 0.785367 37.4271C0.926751 37.3581 1.06942 37.31 1.21466 37.2826C1.50514 37.228 1.80334 37.1981 2.10667 37.1929C2.41129 37.1877 2.71334 37.1994 3.01282 37.2267C3.16706 37.2449 3.32387 37.2657 3.48325 37.2891C3.64134 37.3126 3.78015 37.375 3.8984 37.4752C4.01665 37.5767 4.09763 37.6977 4.1439 37.8409C4.18888 37.984 4.22102 38.1323 4.23901 38.2885C4.37525 38.2794 4.59504 38.2664 4.89966 38.2468C5.20428 38.2286 5.52176 38.2143 5.85337 38.2052C6.18498 38.1961 6.50117 38.1987 6.80065 38.2117C7.10012 38.2247 7.31349 38.256 7.44073 38.3015C7.54998 38.3379 7.64895 38.3939 7.74021 38.4668C7.83147 38.5409 7.91244 38.6281 7.98571 38.7283C8.04869 38.8298 8.09496 38.9352 8.12195 39.0458C8.14894 39.1564 8.17208 39.2709 8.19007 39.3906C8.21706 39.63 8.22606 39.8643 8.21706 40.0946C8.20807 40.3249 8.18108 40.5539 8.1348 40.7842C8.11681 40.8675 8.09624 40.9482 8.07311 41.0249C8.04997 41.103 8.02041 41.1785 7.98442 41.2527C7.88417 41.4179 7.74792 41.5467 7.57569 41.6391C7.46644 41.6938 7.35333 41.7315 7.23508 41.7497C7.11683 41.7679 6.99858 41.7823 6.88034 41.7914C6.64384 41.8096 6.40605 41.8148 6.16441 41.8057C5.92406 41.7966 5.68499 41.7914 5.44978 41.7914C5.45878 41.9202 5.46777 42.0464 5.47677 42.1713C5.48577 42.2949 5.49991 42.4212 5.5179 42.55C5.59116 43.2214 5.66957 43.8902 5.75697 44.5565C5.84309 45.2227 5.90864 45.8928 5.95491 46.5629C5.9729 46.7282 5.98447 46.8934 5.98961 47.06C5.99347 47.2253 5.99218 47.3905 5.98318 47.5571C5.98318 47.7601 5.94205 47.9435 5.86108 48.1088C5.78782 48.2467 5.68628 48.3638 5.55389 48.4601C5.4215 48.5564 5.28397 48.628 5.13873 48.6735" fill="white"/>
<path d="M11.5537 41.0783C11.4445 41.1798 11.3198 41.2696 11.1784 41.3476C11.037 41.4257 10.8943 41.4647 10.7491 41.4647C10.6578 41.4647 10.5692 41.4491 10.483 41.4166C10.3969 41.3841 10.3121 41.3502 10.2311 41.3125C10.1861 41.3034 10.1129 41.2696 10.0126 41.2097C9.91236 41.1498 9.84424 41.1056 9.80825 41.0783C9.66301 40.9677 9.52162 40.8467 9.38538 40.7126C9.24913 40.5799 9.13474 40.4303 9.04477 40.2637C8.98179 40.1531 8.93166 40.036 8.89439 39.9124C8.8584 39.7888 8.8494 39.6626 8.8674 39.5337C8.88539 39.3958 8.93552 39.2839 9.01778 39.1954C9.10004 39.1082 9.19901 39.0484 9.31726 39.0158C9.43551 38.9833 9.56018 38.9768 9.69128 38.995C9.82239 39.0132 9.94835 39.0549 10.0666 39.1186C10.1386 39.1642 10.2054 39.2136 10.2645 39.2631C10.3237 39.3138 10.3892 39.3672 10.4625 39.4218C10.5357 39.293 10.6077 39.1785 10.681 39.077C10.7632 38.9664 10.8584 38.8753 10.9676 38.8011C11.0769 38.7283 11.19 38.6775 11.3082 38.6489C11.4265 38.6216 11.5447 38.619 11.663 38.6424C11.7812 38.6658 11.8905 38.7231 11.9894 38.8155C12.0627 38.8805 12.1192 38.9586 12.1604 39.0497C12.2015 39.1421 12.2259 39.2384 12.2349 39.3385C12.2619 39.6508 12.2118 39.9657 12.0845 40.2832C11.9573 40.6007 11.7799 40.8649 11.5537 41.077M11.8815 48.3612C11.6912 48.4445 11.4933 48.5017 11.2889 48.5343C11.0846 48.5668 10.8776 48.5876 10.6694 48.5967C10.4792 48.5967 10.2877 48.5811 10.0974 48.5486C9.90722 48.5161 9.7337 48.4406 9.57946 48.3209C9.45221 48.2298 9.35967 48.1075 9.30055 47.9552C9.24142 47.803 9.19772 47.6494 9.17073 47.4933C9.12574 47.2448 9.09361 46.9923 9.07562 46.7347C9.05762 46.477 9.04863 46.2194 9.04863 45.9618V45.9474C9.00364 45.561 8.97536 45.1732 8.96637 44.7815C8.95737 44.3912 8.9805 43.9982 9.03449 43.6026C9.05248 43.4465 9.07819 43.2904 9.10904 43.1342C9.14117 42.9781 9.21058 42.844 9.31983 42.7347C9.41108 42.6436 9.54219 42.5669 9.71442 42.507C9.88665 42.4472 10.0705 42.4055 10.2658 42.3834C10.4612 42.3613 10.654 42.3509 10.8455 42.3561C11.0357 42.3613 11.1951 42.3769 11.3223 42.4042C11.5486 42.4511 11.7581 42.533 11.9496 42.6528C12.1398 42.7907 12.2671 42.9885 12.3313 43.2461C12.3763 43.4387 12.3904 43.6326 12.3725 43.8252C12.3545 44.0177 12.3403 44.2168 12.3313 44.4185C12.3223 44.7503 12.3133 45.0808 12.3043 45.4113C12.2953 45.7418 12.3095 46.0685 12.3455 46.3912C12.3725 46.6306 12.3994 46.8713 12.4277 47.1159C12.4547 47.3593 12.4329 47.6013 12.3596 47.8407C12.3236 47.9513 12.2619 48.0541 12.1758 48.1517C12.0897 48.248 11.992 48.3196 11.8827 48.3651" fill="white"/>
<path d="M15.5048 48.6372C15.3235 48.6645 15.1346 48.6801 14.9392 48.6853C14.7439 48.6905 14.5511 48.6736 14.3596 48.6372C14.2503 48.6189 14.1398 48.5864 14.0254 48.5409C13.911 48.4953 13.8184 48.4303 13.7465 48.3483C13.6462 48.2468 13.5717 48.1232 13.5215 47.9761C13.4714 47.8291 13.438 47.6821 13.42 47.535C13.411 47.4517 13.411 47.293 13.42 47.0588C13.429 46.8246 13.4406 46.576 13.4547 46.3145C13.4688 46.0529 13.4817 45.807 13.4958 45.5767C13.51 45.3464 13.5164 45.1902 13.5164 45.1082C13.5344 44.6671 13.5434 44.2325 13.5434 43.8044V42.5006C13.5434 42.2794 13.5614 42.0543 13.5974 41.8253C13.6333 41.5949 13.7246 41.3972 13.8698 41.2319C13.9791 41.1122 14.1153 41.0211 14.2786 40.956C14.4418 40.8923 14.614 40.852 14.7966 40.8389C14.9778 40.8246 15.1577 40.8363 15.3351 40.8728C15.5125 40.9092 15.6693 40.9691 15.8055 41.0523C15.9148 41.1161 16.0099 41.1955 16.0922 41.2866C16.1744 41.3789 16.2515 41.4752 16.3235 41.5767C16.623 41.31 16.9687 41.1213 17.3595 41.0107C17.7142 40.9092 18.0767 40.878 18.4494 40.9144C18.8222 40.9508 19.1756 41.0523 19.5124 41.2176C19.7759 41.3464 20.0137 41.526 20.2283 41.755C20.4417 41.9853 20.6075 42.2378 20.7257 42.5136C20.844 42.8077 20.9365 43.107 21.0046 43.4101C21.0728 43.7133 21.1293 44.0217 21.1756 44.334C21.2206 44.6372 21.2527 44.9404 21.2707 45.2449C21.2887 45.5481 21.2887 45.8512 21.2707 46.1557C21.2527 46.6437 21.1936 47.0978 21.0933 47.5207C21.0483 47.6677 20.9931 47.8148 20.9301 47.9618C20.8671 48.1089 20.7797 48.2325 20.6717 48.334C20.6357 48.3613 20.5805 48.3886 20.5085 48.4172C20.4352 48.4446 20.3568 48.4693 20.2707 48.4927C20.1846 48.5161 20.1023 48.5357 20.0252 48.5552C19.9481 48.5734 19.8864 48.5825 19.8414 48.5825C19.6319 48.6007 19.4147 48.5942 19.1872 48.5617C18.9597 48.5292 18.7605 48.4485 18.5882 48.3197C18.425 48.1908 18.3068 48.0295 18.2335 47.8369C18.1782 47.699 18.1422 47.5519 18.1242 47.3958C18.1062 47.2396 18.0973 47.0835 18.0973 46.9273C18.0973 46.5786 18.1011 46.2286 18.1114 45.8786C18.1204 45.5298 18.1152 45.1798 18.0973 44.8298C18.0883 44.6736 18.0767 44.5149 18.0625 44.3535C18.0484 44.1922 18.0188 44.0347 17.9739 43.8773C17.9559 43.7758 17.9237 43.6769 17.8787 43.5806C17.8338 43.4843 17.7746 43.3984 17.7014 43.3256C17.6371 43.2618 17.5561 43.2293 17.4559 43.2293C17.3466 43.2293 17.2515 43.2644 17.1693 43.3334C17.0883 43.4023 17.0176 43.4921 16.9585 43.6027C16.8993 43.7133 16.8518 43.8304 16.8158 43.9541C16.7798 44.0777 16.7515 44.1948 16.7335 44.3054C16.6333 44.8025 16.5857 45.3008 16.5909 45.8018C16.596 46.3028 16.5883 46.8024 16.5703 47.2982C16.5613 47.4543 16.5407 47.6183 16.5086 47.7875C16.4765 47.9579 16.4109 48.1076 16.3107 48.2364C16.2194 48.3561 16.1012 48.4472 15.9559 48.5122C15.8107 48.576 15.6603 48.6176 15.5061 48.6358" fill="white"/>
<path d="M27.4543 50.5953C26.9993 50.806 26.5096 50.9349 25.9827 50.9817C25.4557 51.0273 24.9467 50.9869 24.457 50.8581C24.2668 50.8126 24.0778 50.7501 23.8914 50.672C23.7051 50.594 23.5251 50.5042 23.3529 50.4027C23.0354 50.201 22.8401 49.9199 22.7668 49.5608C22.7128 49.2667 22.7411 48.9674 22.8555 48.6642C22.9686 48.3611 23.1434 48.1177 23.3799 47.933C23.6614 47.7117 23.9801 47.6389 24.3336 47.7118C24.5611 47.7573 24.7783 47.8341 24.9878 47.9395C25.196 48.0449 25.4184 48.0982 25.6549 48.0982C25.8451 48.0982 26.0366 48.0436 26.2269 47.933C26.4171 47.8224 26.5675 47.6896 26.6767 47.5322C26.822 47.3214 26.9235 47.0911 26.9826 46.8425C27.0418 46.594 27.0855 46.3455 27.1124 46.0982C26.9029 46.3468 26.6472 46.5563 26.3425 46.7254C26.0379 46.8959 25.723 47.0039 25.3953 47.0494C25.1678 47.0676 24.9403 47.0546 24.714 47.0078C24.4865 46.9622 24.2693 46.8881 24.0598 46.7866C23.7051 46.6304 23.385 46.4027 23.0997 46.1034C22.8131 45.8055 22.5933 45.4763 22.439 45.1171C22.2938 44.7775 22.1961 44.4249 22.146 44.0618C22.0959 43.6988 22.0663 43.3331 22.0573 42.9649C22.0573 42.7073 22.0522 42.447 22.0432 42.1855C22.0342 41.9239 22.0522 41.6637 22.0971 41.406C22.1151 41.2954 22.1447 41.1874 22.1858 41.082C22.227 40.9766 22.2835 40.8816 22.3568 40.7997C22.475 40.68 22.6151 40.5928 22.7784 40.5381C22.9416 40.4835 23.101 40.4457 23.2552 40.4275C23.3915 40.4184 23.5277 40.4093 23.6639 40.4002C23.8002 40.3911 23.9364 40.3859 24.0727 40.3859C24.1999 40.3859 24.331 40.395 24.4673 40.4132C24.6035 40.4314 24.7218 40.477 24.822 40.5511C24.9043 40.6149 24.9673 40.7008 25.0122 40.8062C25.0572 40.9116 25.0855 41.0157 25.0945 41.1159C25.1215 41.5023 25.1099 41.8888 25.0611 42.274C25.011 42.6604 24.9955 43.0469 25.0135 43.432C25.0315 43.6155 25.0637 43.7977 25.1086 43.9772C25.1536 44.1568 25.2269 44.3195 25.3271 44.4665C25.4724 44.6591 25.6613 44.7385 25.8927 44.7007C26.124 44.6643 26.3168 44.5485 26.4711 44.3559C26.6523 44.1165 26.768 43.8367 26.8181 43.514C26.8682 43.1926 26.8888 42.8751 26.8798 42.5628C26.8798 42.4522 26.8708 42.2896 26.8528 42.0736C26.8348 41.8576 26.8194 41.6325 26.8053 41.3982C26.7911 41.164 26.7898 40.9415 26.7988 40.7294C26.8078 40.5186 26.8348 40.3664 26.8811 40.274C26.8811 40.1907 26.9081 40.1178 26.9633 40.0528C27.0173 39.989 27.0855 39.9357 27.1677 39.894C27.25 39.8524 27.3387 39.8186 27.4338 39.7912C27.5289 39.7639 27.6176 39.7457 27.6998 39.7366C27.9723 39.691 28.2487 39.6767 28.5314 39.6949C28.6407 39.704 28.7499 39.7184 28.8579 39.7366C28.9672 39.7548 29.0713 39.7912 29.1715 39.8472C29.3078 39.9213 29.417 40.0515 29.498 40.2401C29.5803 40.4288 29.6458 40.6357 29.6959 40.8608C29.7461 41.0859 29.7795 41.311 29.7988 41.5362C29.8167 41.7613 29.8309 41.9473 29.8399 42.0944C29.8579 42.4991 29.8617 42.8985 29.854 43.2941C29.845 43.6897 29.8399 44.0892 29.8399 44.4938C29.8399 45.1926 29.8039 45.8913 29.7306 46.5901C29.6574 47.2889 29.4993 47.9655 29.2538 48.6174C29.0995 49.0403 28.8605 49.4242 28.5379 49.769C28.2152 50.1138 27.8541 50.3871 27.4543 50.59" fill="white"/>
<path d="M34.2382 48.8582C34.0377 48.9311 33.8295 48.9662 33.611 48.9623C33.3925 48.9571 33.1791 48.9363 32.9709 48.8999C32.8167 48.8725 32.6637 48.8218 32.5146 48.7476C32.3642 48.6735 32.2447 48.5733 32.1534 48.4444C32.1175 48.3898 32.0853 48.2948 32.0583 48.1621C32.0313 48.0294 32.0108 47.8862 31.9966 47.734C31.9825 47.5817 31.9709 47.4373 31.9619 47.2994C31.9529 47.1614 31.9478 47.056 31.9478 46.9819C31.9388 46.4484 31.9504 45.9149 31.9825 45.3814C32.0146 44.8479 32.0622 44.3196 32.1252 43.7952C31.9799 43.8043 31.8347 43.8095 31.6895 43.8095C31.5442 43.8095 31.399 43.7913 31.2537 43.7548C31.0442 43.7093 30.8861 43.6078 30.7769 43.4517C30.7139 43.3606 30.6702 43.2357 30.6471 43.0795C30.6239 42.9234 30.6175 42.7607 30.6265 42.5903C30.6355 42.4198 30.6535 42.2519 30.6805 42.0867C30.7075 41.9214 30.7396 41.7874 30.7756 41.6872C30.8206 41.5493 30.8964 41.4231 31.0005 41.3073C31.1046 41.1927 31.2203 41.1069 31.3476 41.0522C31.4928 40.9976 31.6445 40.9715 31.8038 40.9767C31.9619 40.9819 32.1187 40.9924 32.2743 41.0119C32.3103 40.4419 32.4144 39.872 32.5879 39.3008C32.6329 39.1537 32.6971 39.0158 32.7781 38.887C32.8604 38.7582 32.9645 38.6567 33.0917 38.5838C33.201 38.5291 33.3411 38.4875 33.5146 38.4602C33.6868 38.4329 33.8642 38.4211 34.0467 38.425C34.228 38.4303 34.4028 38.4511 34.5711 38.4875C34.7395 38.5239 34.8783 38.5708 34.9863 38.6254C35.1585 38.7269 35.2819 38.874 35.3539 39.0666C35.3899 39.168 35.4104 39.2786 35.4156 39.3971C35.4207 39.5168 35.413 39.6313 35.395 39.7419C35.377 39.9436 35.3513 40.144 35.3205 40.3417C35.2883 40.5395 35.2588 40.7399 35.2318 40.9416C35.422 40.9416 35.611 40.9468 35.7973 40.9546C35.9837 40.9637 36.1675 41.0015 36.3487 41.0652C36.503 41.1199 36.6418 41.2032 36.7639 41.3138C36.886 41.4244 36.9708 41.5532 37.0158 41.7002C37.0608 41.8473 37.0891 41.9995 37.0981 42.1556C37.1071 42.3118 37.1032 42.4679 37.0852 42.6241C37.0672 42.7438 37.0492 42.8609 37.0312 42.9754C37.0132 43.0912 36.9682 43.1992 36.895 43.2994C36.85 43.3918 36.7793 43.4673 36.6842 43.5271C36.5891 43.587 36.4914 43.626 36.3911 43.6442C36.1726 43.6898 35.9503 43.7106 35.7241 43.7067C35.4966 43.7028 35.2703 43.6911 35.0428 43.6716C35.0248 44.2142 35.0171 44.7542 35.0223 45.2929C35.0261 45.8303 35.0377 46.3716 35.057 46.9142C35.066 47.1354 35.0685 47.3579 35.0634 47.583C35.0583 47.8081 35.0197 48.0228 34.9477 48.2245C34.8847 48.3807 34.7883 48.5147 34.6611 48.624C34.5339 48.7346 34.3925 48.8127 34.2382 48.8582Z" fill="white"/>
<path d="M43.8036 48.8023C43.5671 48.8115 43.3267 48.7906 43.0812 48.7399C42.8357 48.6891 42.6262 48.5759 42.454 48.4016C42.3447 48.3001 42.2612 48.1739 42.2021 48.0216C42.1429 47.8694 42.0954 47.7158 42.0594 47.5597C41.8602 47.7158 41.6481 47.859 41.4257 47.9878C41.2034 48.1166 40.9733 48.2181 40.7381 48.291C40.5286 48.3547 40.3088 48.3873 40.0774 48.3873C39.8461 48.3873 39.625 48.3508 39.4168 48.2767C39.1803 48.1934 38.9644 48.0698 38.7703 47.9045C38.5749 47.7393 38.4129 47.5506 38.287 47.3385C38.0685 46.9989 37.913 46.6254 37.8166 46.2207C37.7214 45.816 37.6739 45.4075 37.6739 44.9937C37.6739 44.5799 37.724 44.1726 37.8243 43.7731C37.9245 43.3737 38.0788 42.9989 38.287 42.6489C38.4232 42.4277 38.571 42.2195 38.7304 42.0217C38.8885 41.8239 39.0736 41.6469 39.2818 41.4908C39.4361 41.3711 39.5993 41.2657 39.7728 41.1733C39.945 41.0822 40.1224 41.0028 40.3049 40.9391C40.7407 40.7829 41.1905 40.6905 41.6532 40.6632C42.1159 40.6359 42.5748 40.658 43.0298 40.7322C43.3203 40.7868 43.6018 40.8584 43.8743 40.9456C44.1467 41.0328 44.4192 41.1278 44.6917 41.2279C44.792 41.2644 44.8704 41.3268 44.9308 41.414C44.9899 41.5012 45.0105 41.5962 44.9925 41.6964C44.9925 41.7146 44.9976 41.7263 45.0066 41.7315C45.0156 41.7367 45.0208 41.7471 45.0208 41.7667C45.0298 41.8031 45.0336 41.859 45.0336 41.9319C45.0516 42.3639 45.0786 42.8011 45.1159 43.2422C45.1249 43.3164 45.139 43.4426 45.157 43.6222C45.175 43.8018 45.1956 44.0034 45.2187 44.2286C45.2418 44.4537 45.2663 44.6957 45.2932 44.9533C45.3202 45.211 45.3434 45.4543 45.3614 45.6846C45.3794 45.9149 45.3974 46.1192 45.4153 46.2988C45.4333 46.4784 45.4423 46.6046 45.4423 46.6775C45.4603 46.8987 45.4565 47.1212 45.4282 47.3463C45.4012 47.5714 45.3421 47.79 45.2508 48.0021C45.1506 48.2415 44.9925 48.425 44.774 48.5538C44.6287 48.6462 44.4745 48.7074 44.3113 48.7399C44.148 48.7724 43.9797 48.7932 43.8074 48.8023M39.143 40.2924C39.0518 40.3288 38.9618 40.3366 38.8705 40.3132C38.7793 40.2898 38.7163 40.2286 38.6803 40.1271C38.6533 40.0438 38.6546 39.9671 38.6867 39.8929C38.7189 39.82 38.7703 39.7511 38.8435 39.686C38.9168 39.6222 38.9952 39.5637 39.0826 39.5129C39.1687 39.4622 39.2535 39.414 39.3345 39.3685C39.562 39.2397 39.7998 39.1343 40.0492 39.051C40.2985 38.9677 40.5504 38.8988 40.8049 38.8441C41.0414 38.7986 41.2766 38.7751 41.5131 38.7751C41.7496 38.7751 41.9848 38.7986 42.2213 38.8441C42.2573 38.8532 42.3139 38.874 42.391 38.9066C42.4681 38.9391 42.5208 38.9638 42.5478 38.982C42.6301 39.0653 42.6635 39.1642 42.6506 39.2787C42.6365 39.3932 42.5799 39.4791 42.4797 39.5338C42.4064 39.5793 42.328 39.5962 42.2419 39.5819C42.1558 39.5676 42.0761 39.5611 42.0028 39.5611C41.9489 39.5611 41.8576 39.5676 41.7304 39.5819C41.6031 39.5962 41.4669 39.6144 41.3216 39.6366C41.1764 39.66 41.0427 39.6821 40.9193 39.7055C40.7972 39.7289 40.7085 39.7446 40.6533 39.7537C40.4168 39.8083 40.1815 39.8786 39.945 39.9606C39.8088 40.0061 39.6751 40.0621 39.5427 40.1258C39.4104 40.1909 39.2767 40.2455 39.1404 40.2911M40.7921 45.1472C40.864 45.332 40.9874 45.4647 41.1597 45.5467C41.3319 45.63 41.5093 45.6339 41.6905 45.561C41.8088 45.5064 41.9103 45.4283 41.9977 45.3268C42.0838 45.2253 42.1635 45.116 42.2355 44.9963C42.454 44.6189 42.5902 44.2194 42.6442 43.7966C42.6622 43.6586 42.6673 43.5155 42.6583 43.3685C42.6494 43.2214 42.6224 43.0835 42.5761 42.9547C42.5491 42.8714 42.5028 42.7959 42.4398 42.727C42.3756 42.658 42.3036 42.6098 42.2213 42.5825C42.1661 42.5643 42.1095 42.5591 42.0504 42.5682C41.9913 42.5773 41.9296 42.5825 41.8666 42.5825H41.7573C41.6571 42.619 41.5645 42.6697 41.4784 42.7348C41.3923 42.7985 41.3126 42.8675 41.2406 42.9417C41.0684 43.116 40.9347 43.3229 40.8383 43.5623C40.7432 43.8018 40.6867 44.0451 40.6674 44.2936C40.6584 44.4407 40.661 44.5877 40.6738 44.7347C40.688 44.8818 40.7265 45.0197 40.7895 45.1485" fill="white"/>
<path d="M49.3484 48.443C49.0579 48.6265 48.7199 48.7241 48.333 48.7332C47.9474 48.7423 47.5991 48.6695 47.2906 48.512C47.1364 48.4378 47.0001 48.3233 46.8819 48.1672C46.8086 48.0566 46.7572 47.9395 46.7251 47.8159C46.693 47.6922 46.6685 47.566 46.6505 47.4372C46.6235 47.1431 46.612 46.8438 46.6171 46.5407C46.621 46.2375 46.6287 45.9382 46.6377 45.6441V45.6168C46.5927 45.0924 46.5554 44.5732 46.5284 44.0579C46.5014 43.5426 46.4963 43.0235 46.5143 42.4991C46.5323 42.0853 46.549 41.6767 46.5619 41.272C46.576 40.8673 46.5966 40.4588 46.6235 40.045C46.6415 39.7691 46.6685 39.4893 46.7058 39.2031C46.7418 38.9181 46.8369 38.6566 46.9924 38.4171C47.0747 38.2792 47.1904 38.1673 47.3395 38.0788C47.4899 37.9916 47.6415 37.9253 47.7958 37.8784C47.995 37.8238 48.1981 37.8043 48.4024 37.8238C48.6068 37.842 48.8086 37.8745 49.0091 37.9201C49.1633 37.9565 49.3086 38.0073 49.4448 38.0723C49.5811 38.1374 49.7083 38.2194 49.8266 38.3209C49.8998 38.395 49.9628 38.4848 50.0168 38.5902C50.0708 38.6956 50.1119 38.8036 50.1389 38.9142C50.1839 39.1068 50.2019 39.3046 50.1929 39.5076C50.1839 39.7093 50.1697 39.9122 50.1517 40.1139C50.1517 40.1595 50.1427 40.2493 50.1248 40.3833C50.1068 40.516 50.09 40.6591 50.0772 40.8114C50.0631 40.9636 50.0476 41.1081 50.0296 41.246C50.0116 41.3839 50.0026 41.4763 50.0026 41.5219C49.9577 42.0645 49.9101 42.6006 49.86 43.1289C49.8098 43.6585 49.7983 44.1933 49.8253 44.7359C49.8433 45.0026 49.8664 45.272 49.8934 45.5426C49.9204 45.8146 49.9435 46.0826 49.9615 46.3494C49.9795 46.5888 49.9936 46.8256 50.0026 47.0598C50.0116 47.2941 49.9795 47.5218 49.9075 47.743C49.7983 48.0462 49.6119 48.2804 49.3484 48.4456" fill="white"/>
<path d="M55.6837 48.8439C55.2107 48.8621 54.7365 48.8556 54.2596 48.8231C53.7828 48.7905 53.3265 48.6734 52.8908 48.4717C52.6363 48.3429 52.4049 48.1751 52.1954 47.9682C51.9872 47.7613 51.8137 47.5388 51.6774 47.2993C51.4499 46.9038 51.2944 46.4783 51.207 46.0228C51.1209 45.5674 51.0862 45.1146 51.1054 44.6644C51.1234 44.3612 51.1466 44.058 51.1736 43.7535C51.2006 43.4503 51.2635 43.1511 51.3638 42.857C51.4461 42.6176 51.5527 42.3859 51.6838 42.1608C51.8149 41.9357 51.9717 41.7314 52.1543 41.5466C52.3728 41.3163 52.6195 41.1212 52.8972 40.9611C53.1748 40.7998 53.4576 40.6735 53.7481 40.5824C54.293 40.4081 54.8586 40.3456 55.4447 40.3964C56.0308 40.4471 56.5822 40.6007 57.1002 40.8583C57.3547 40.9871 57.5834 41.1615 57.7878 41.3827C57.9922 41.6039 58.1438 41.8472 58.2441 42.114C58.3443 42.3716 58.3945 42.6436 58.3945 42.9285C58.3945 43.2135 58.3623 43.4894 58.2994 43.7561C58.2544 43.9396 58.1927 44.1218 58.1156 44.3013C58.0384 44.4809 57.9356 44.6396 57.8084 44.7776C57.6451 44.961 57.4446 45.1107 57.2094 45.2252C56.9729 45.3397 56.7364 45.4204 56.5012 45.4672C56.0925 45.5596 55.6773 45.5817 55.2544 45.5362C54.8316 45.4906 54.4164 45.4126 54.0077 45.302C53.9627 45.2838 53.9306 45.2929 53.9126 45.3293C53.8856 45.3657 53.8714 45.4165 53.8714 45.4815C53.8714 45.5466 53.874 45.613 53.8779 45.6819C53.883 45.7509 53.892 45.8199 53.9049 45.8888C53.919 45.9578 53.9344 46.0111 53.9524 46.0476C53.9794 46.14 54.0154 46.2128 54.0617 46.2688C54.0977 46.3052 54.1542 46.3403 54.2326 46.3729C54.3097 46.4054 54.392 46.4301 54.4781 46.4483C54.5642 46.4666 54.6503 46.4835 54.7365 46.4965C54.8226 46.5095 54.8933 46.5173 54.9473 46.5173C55.5642 46.5446 56.1914 46.4939 56.8277 46.3651C56.8997 46.3468 56.9755 46.3299 57.0526 46.3169C57.1297 46.3026 57.2043 46.2779 57.2775 46.2414C57.3315 46.2141 57.3906 46.1998 57.4549 46.1998C57.6181 46.1907 57.775 46.2532 57.9253 46.3859C58.0757 46.5199 58.1734 46.6643 58.2184 46.8205C58.2544 46.9766 58.2569 47.1432 58.2248 47.3176C58.1927 47.4919 58.1503 47.6585 58.095 47.8146C58.032 48.0072 57.9151 48.1751 57.748 48.3182C57.5796 48.4613 57.4009 48.5641 57.2094 48.6292C56.9639 48.7034 56.7146 48.7528 56.4601 48.7814C56.2056 48.8088 55.9472 48.8322 55.6837 48.8504M53.2583 39.492C53.3316 39.6208 53.3496 39.7406 53.3123 39.8512C53.2763 39.9618 53.2121 40.0489 53.1221 40.1127C53.0308 40.1765 52.9319 40.2051 52.8226 40.196C52.7134 40.1869 52.6221 40.1179 52.5501 39.9891C52.4769 39.8694 52.4589 39.7497 52.4962 39.63C52.5321 39.5102 52.5964 39.4205 52.6864 39.3606C52.7776 39.3007 52.8766 39.276 52.9859 39.2851C53.0951 39.2942 53.1851 39.3632 53.2583 39.492ZM54.5527 39.7132C54.4074 39.8147 54.2506 39.8368 54.0822 39.7822C53.9139 39.7275 53.7943 39.6208 53.7211 39.4647C53.6298 39.2903 53.6208 39.1134 53.6941 38.9338C53.7661 38.7542 53.8984 38.6462 54.0887 38.6098C54.1067 38.6098 54.1272 38.6007 54.1504 38.5825C54.1735 38.5643 54.1928 38.5551 54.2121 38.5551C54.3303 38.4914 54.4524 38.4914 54.5797 38.5551C54.6889 38.6111 54.7686 38.6892 54.8187 38.7894C54.8689 38.8909 54.8907 38.9963 54.8868 39.1069C54.8817 39.2175 54.8509 39.3281 54.7917 39.4374C54.7326 39.548 54.6529 39.6391 54.5539 39.7132M54.239 43.9331C54.302 43.9968 54.3971 44.0463 54.5244 44.0775C54.6516 44.11 54.7827 44.1283 54.919 44.1322C55.0552 44.1374 55.1915 44.1296 55.3277 44.1114C55.464 44.0931 55.5771 44.0697 55.6683 44.0424C55.8405 43.9877 55.9768 43.8954 56.077 43.7665C56.1773 43.6377 56.2403 43.4959 56.2673 43.3384C56.2943 43.1823 56.2814 43.0235 56.2261 42.8622C56.1722 42.7008 56.0758 42.5616 55.9408 42.4419C55.8136 42.3313 55.6632 42.2402 55.4909 42.166C55.3187 42.0919 55.1452 42.0645 54.973 42.0828C54.7725 42.101 54.6002 42.1751 54.455 42.304C54.3097 42.4328 54.2031 42.5954 54.1349 42.7932C54.0668 42.991 54.0373 43.1862 54.0462 43.3788C54.0462 43.4803 54.0591 43.5818 54.0874 43.682C54.1144 43.7834 54.1645 43.8667 54.2378 43.9305M56.311 39.5883C56.2467 39.643 56.1786 39.6729 56.1066 39.6781C56.0333 39.6833 55.9652 39.6664 55.9022 39.63C55.838 39.5935 55.7879 39.5376 55.7519 39.4647C55.7159 39.3905 55.6966 39.3125 55.6966 39.2305C55.7056 39.1199 55.7493 39.0236 55.8264 38.9403C55.9035 38.857 55.9961 38.8206 56.1053 38.8297C56.1966 38.8297 56.2711 38.8596 56.3303 38.9195C56.3894 38.9793 56.4305 39.0483 56.4524 39.1264C56.4755 39.2045 56.4755 39.2877 56.4524 39.3749C56.4292 39.4621 56.3817 39.5337 56.3097 39.5883" fill="white"/>
<path d="M63.0267 48.8295C62.645 48.8478 62.271 48.8504 61.9021 48.836C61.5345 48.823 61.1643 48.7788 60.7916 48.7046C60.5641 48.6591 60.3366 48.5901 60.1104 48.4977C59.8829 48.4053 59.6926 48.2726 59.5384 48.0969C59.4381 47.9772 59.3559 47.8302 59.2929 47.6558C59.2299 47.4815 59.1888 47.3019 59.1708 47.1184C59.1528 46.935 59.1567 46.7515 59.1849 46.5667C59.2119 46.3832 59.2672 46.2271 59.3482 46.0983C59.4574 45.9421 59.5847 45.8315 59.7299 45.7678C59.9381 45.6845 60.1566 45.6415 60.3841 45.6363C60.6116 45.6311 60.8289 45.652 61.0384 45.6988C61.1746 45.7261 61.3083 45.7626 61.4407 45.8094C61.5718 45.8562 61.7067 45.8992 61.843 45.9408C61.9792 45.9825 62.1155 46.0163 62.2517 46.0436C62.3879 46.071 62.5242 46.0801 62.6604 46.0709C62.7607 46.0709 62.8597 46.0501 62.9599 46.0085C63.0602 45.9668 63.1103 45.8966 63.1103 45.7951C63.1103 45.7313 63.0807 45.6741 63.0216 45.622C62.9625 45.5713 62.8918 45.5296 62.8108 45.4984C62.7285 45.4659 62.6424 45.4386 62.5525 45.4151C62.4612 45.393 62.3841 45.3722 62.3211 45.3527C62.0306 45.2694 61.7376 45.19 61.4419 45.1106C61.1463 45.0326 60.8623 44.9298 60.5898 44.801C60.3996 44.7086 60.217 44.5993 60.0448 44.4704C59.8726 44.3416 59.7363 44.1855 59.6361 44.002C59.4908 43.7353 59.3957 43.4503 59.3495 43.1471C59.3045 42.8439 59.3173 42.5446 59.3906 42.2506C59.4356 42.0294 59.5217 41.8212 59.6489 41.6234C59.7762 41.4256 59.9214 41.2486 60.0847 41.0925C60.5024 40.7242 60.9882 40.4991 61.5422 40.4171C61.8507 40.3625 62.1669 40.3547 62.4895 40.3963C62.8121 40.438 63.118 40.5186 63.4085 40.6371C63.5267 40.5733 63.6758 40.5082 63.8583 40.4445C64.0396 40.3807 64.2259 40.33 64.4175 40.2922C64.6077 40.2558 64.7915 40.2389 64.9689 40.2441C65.1462 40.2493 65.2889 40.2922 65.3981 40.3755C65.4431 40.4119 65.4817 40.4588 65.5138 40.5134C65.546 40.5681 65.5704 40.6292 65.5884 40.693C65.6154 40.7945 65.6359 40.9441 65.6501 41.1406C65.6642 41.3384 65.6706 41.5453 65.6706 41.7613C65.6706 41.9773 65.6616 42.1868 65.6436 42.3885C65.6257 42.5902 65.6025 42.7424 65.5755 42.8439C65.5395 42.9454 65.4868 43.0417 65.4187 43.1341C65.3506 43.2265 65.267 43.2954 65.1668 43.341C65.0395 43.406 64.9007 43.436 64.7516 43.4308C64.6013 43.4269 64.4547 43.4061 64.3095 43.3683C63.992 43.2941 63.6874 43.194 63.3969 43.0651C63.1064 42.9363 62.8018 42.8348 62.4843 42.7619C62.4021 42.7437 62.3185 42.7372 62.2324 42.7411C62.1463 42.7463 62.0692 42.7646 62.0011 42.7958C61.9329 42.8283 61.8764 42.8712 61.8314 42.9272C61.7851 42.9832 61.7671 43.0508 61.7774 43.1341C61.7864 43.2265 61.8314 43.302 61.9137 43.3618C61.9959 43.4217 62.082 43.4698 62.172 43.5062C62.217 43.5245 62.3108 43.5505 62.4509 43.5817C62.591 43.6142 62.744 43.6481 62.9072 43.6845C63.0704 43.7209 63.2247 43.7587 63.3699 43.7951C63.5152 43.8316 63.6103 43.855 63.6565 43.8641C63.938 43.9461 64.2195 44.0528 64.501 44.1816C64.7825 44.3104 65.028 44.4809 65.2362 44.6917C65.4444 44.9038 65.6102 45.1497 65.7336 45.4294C65.8557 45.7105 65.9264 45.9955 65.9444 46.2844C65.9624 46.5745 65.929 46.8608 65.8416 47.1471C65.7555 47.432 65.6115 47.6845 65.4123 47.9057C65.276 48.0618 65.1167 48.1971 64.9354 48.313C64.7529 48.4275 64.5678 48.5224 64.3763 48.5953C64.1591 48.6682 63.9355 48.7215 63.7092 48.7541C63.4817 48.7866 63.2555 48.8113 63.028 48.8295" fill="white"/>
</g>
<defs>
<clipPath id="clip0_630_137">
<rect width="65.9483" height="51" fill="white"/>
</clipPath>
</defs>
</svg>
