<svg width="20" height="21" viewBox="0 0 20 21" fill="none" xmlns="http://www.w3.org/2000/svg">
<path d="M1.66666 3.83333C1.66666 2.91286 2.41285 2.16667 3.33332 2.16667H6.66666C7.58713 2.16667 8.33332 2.91286 8.33332 3.83333V7.16667C8.33332 8.08714 7.58713 8.83333 6.66666 8.83333H3.33332C2.41285 8.83333 1.66666 8.08714 1.66666 7.16667V3.83333Z" stroke="#8A8A8A" stroke-width="1.5"/>
<path d="M18.3333 5.5C18.3333 7.34095 16.8409 8.83333 15 8.83333C13.159 8.83333 11.6667 7.34095 11.6667 5.5C11.6667 3.65905 13.159 2.16667 15 2.16667C16.8409 2.16667 18.3333 3.65905 18.3333 5.5Z" stroke="#8A8A8A" stroke-width="1.5"/>
<path d="M8.33332 15.5C8.33332 17.3409 6.84094 18.8333 4.99999 18.8333C3.15904 18.8333 1.66666 17.3409 1.66666 15.5C1.66666 13.6591 3.15904 12.1667 4.99999 12.1667C6.84094 12.1667 8.33332 13.6591 8.33332 15.5Z" stroke="#8A8A8A" stroke-width="1.5"/>
<path d="M11.6667 13.8333C11.6667 12.9129 12.4128 12.1667 13.3333 12.1667H16.6667C17.5871 12.1667 18.3333 12.9129 18.3333 13.8333V17.1667C18.3333 18.0871 17.5871 18.8333 16.6667 18.8333H13.3333C12.4128 18.8333 11.6667 18.0871 11.6667 17.1667V13.8333Z" stroke="#8A8A8A" stroke-width="1.5"/>
</svg>
