<svg width="20" height="21" viewBox="0 0 20 21" fill="none" xmlns="http://www.w3.org/2000/svg">
<path d="M13.8649 8.94025C13.2475 7.4118 11.7497 6.33333 9.99999 6.33333C7.6988 6.33333 5.83332 8.19881 5.83332 10.5C5.83332 12.2497 6.91179 13.7475 8.44024 14.3649M9.92962 18.833C5.35965 18.7952 1.66666 15.0789 1.66666 10.5C1.66666 5.89763 5.39762 2.16667 9.99999 2.16667C14.5789 2.16667 18.2952 5.85966 18.333 10.4296M10.0477 11.6863L12.2249 18.2179C12.4985 19.0385 13.6592 19.0385 13.9327 18.2179L14.7367 15.806C14.8263 15.5372 15.0372 15.3263 15.306 15.2367L17.7179 14.4327C18.5385 14.1592 18.5385 12.9985 17.7179 12.7249L11.1863 10.5477C10.4826 10.3132 9.81318 10.9826 10.0477 11.6863Z" stroke="#8A8A8A" stroke-width="1.5" stroke-linecap="round" stroke-linejoin="round"/>
</svg>
