<svg width="98" height="58" viewBox="0 0 98 58" fill="none" xmlns="http://www.w3.org/2000/svg">
<path d="M73.868 34.3587C72.9989 31.4329 71.3081 29.2537 68.4109 28.0882C65.4703 26.9045 62.6931 27.3578 60.0422 28.9239C57.3623 22.8395 52.8427 19.6102 46.4585 19.0942C46.4047 19.1388 46.3529 19.1833 46.3012 19.2318C45.9535 19.5515 45.5459 19.7539 45.1237 19.8469C44.7781 20.0351 44.4222 20.2091 44.0621 20.371C44.0435 20.4438 44.0248 20.5147 44 20.5855C44.2918 20.5126 44.6022 20.4762 44.9292 20.456C45.1278 20.4438 45.3244 20.4357 45.5231 20.4317C51.5348 20.3143 56.8118 24.0131 58.7964 29.7332C59.2268 30.9736 59.4255 31.0343 60.4933 30.2613C60.5202 30.2431 60.5451 30.2209 60.572 30.2027C64.4128 27.4529 69.7312 28.7074 71.84 32.8877C72.1732 33.5453 72.3863 34.2656 72.5933 34.9758C72.8995 36.026 73.0196 36.1029 74.1205 35.7609C74.255 35.7184 74.3916 35.684 74.5406 35.6476L75 34.1928C74.613 34.2494 74.2488 34.3041 73.8639 34.3607" fill="#E8E8E8"/>
<path d="M97.9162 47.0869C97.4028 44.1781 95.6407 42.3337 92.78 41.5943C91.786 41.3384 90.7161 41.3729 89.5557 41.2612C88.3112 38.4925 86.2555 36.3312 83.3393 35.0068L83.0251 36.3455C83.1093 36.3739 83.175 36.3983 83.2366 36.4308C85.5367 37.6008 87.1756 39.3843 88.2435 41.6999C88.763 42.8253 88.7589 42.8273 89.9767 42.6993C90.139 42.6831 90.3012 42.6587 90.4655 42.6526C92.1413 42.5795 93.6364 43.0487 94.8911 44.1619C96.4868 45.5777 97.0639 47.8791 96.3225 49.7398C95.5771 51.6065 94.2216 52.4089 91.7922 52.4109C88.3235 52.415 84.857 52.415 81.3904 52.415C81.1296 52.415 80.8667 52.4089 80.6059 52.4312C80.226 52.4637 79.9549 52.7075 80.0062 53.0569C80.0391 53.2803 80.302 53.5241 80.5217 53.6541C80.6963 53.7577 80.9674 53.7211 81.1933 53.7211C84.8898 53.7211 88.5864 53.7333 92.283 53.711C92.897 53.7069 93.5316 53.6338 94.119 53.4611C96.6819 52.7095 98.4029 49.8271 97.9182 47.0849" fill="#E8E8E8"/>
<path d="M89.498 20.3753C89.3504 20.3269 89.1867 20.3133 89.0311 20.3017C87.8895 20.2203 86.748 20.1505 85.6085 20.0652C84.9479 20.0187 84.2874 19.9548 83.6428 19.8986C83.092 18.5441 82.5711 17.2515 82.0402 15.9648C81.8746 15.5637 81.7169 15.1548 81.4934 14.7847C81.1921 14.2828 80.6792 14.2945 80.3758 14.7963C80.2002 15.087 80.0845 15.4126 79.9528 15.7246C79.362 17.1159 78.7753 18.5073 78.1766 19.9219C76.5122 20.0439 74.8977 20.1602 73.2832 20.2803C73.0298 20.2997 72.7703 20.2997 72.5269 20.3598C71.8284 20.5323 71.6887 21.009 72.1876 21.505C72.4091 21.724 72.6626 21.9139 72.9081 22.1096C74.0875 23.0437 75.2689 23.9738 76.4703 24.9214C76.0253 26.5143 75.5822 28.0878 75.1512 29.6632C74.786 31.0003 74.8977 31.1379 76.3226 31.041C76.2827 31.1844 76.2288 31.3743 76.167 31.5952C75.7958 32.9052 75.1133 35.2867 75.1133 35.2867C75.1173 35.2867 75.1232 35.2829 75.1272 35.2829C74.9696 35.8817 74.8558 36.3545 74.7201 36.8215C72.8961 43.1213 70.6968 49.2971 68.2621 55.3954C68.1584 55.6551 68.0187 55.9147 68.0007 56.1821C67.9887 56.3546 68.1324 56.653 68.2681 56.6937C68.4617 56.7499 68.773 56.6821 68.9247 56.5503C69.0963 56.3992 69.1562 56.1221 69.248 55.8915C69.6451 54.8896 70.0383 53.8858 70.4394 52.8588C72.487 52.6631 74.4687 52.4732 76.5282 52.2775C76.4643 52.5623 76.4384 52.7406 76.3865 52.9072C76.0273 54.0583 75.6621 55.2074 75.3009 56.3585C75.237 56.5639 75.1332 56.7848 75.1632 56.9825C75.1891 57.1627 75.3448 57.4127 75.4984 57.4611C75.6521 57.5076 75.9255 57.3875 76.0552 57.2557C76.1969 57.1104 76.2468 56.8739 76.3186 56.6705C76.5901 55.8798 76.8595 55.0892 77.1189 54.2967C78.9869 48.5917 80.5175 42.7977 82.0482 37.0036C82.0722 36.9087 82.7926 33.7985 83.2935 31.5952C83.4771 30.7891 83.6308 30.105 83.7126 29.733C84.3532 30.1322 84.904 30.479 85.4608 30.8182C85.8061 31.0274 86.1573 31.322 86.5804 30.9867C86.9496 30.6941 86.8079 30.326 86.7021 29.9636C86.3668 28.8048 86.0395 27.646 85.7143 26.4872C85.5646 25.9562 85.4309 25.4233 85.2892 24.8807C86.6043 23.873 87.8736 22.9003 89.1428 21.9255C89.3663 21.7531 89.6078 21.5922 89.7954 21.3868C90.1586 20.9857 90.0249 20.5536 89.5 20.3772M76.9712 51.1574C74.9416 51.3454 73.0238 51.5236 71.0162 51.7097C71.0481 51.481 71.0441 51.3086 71.098 51.1555C71.4233 50.2234 71.7805 49.301 72.0878 48.365C72.2096 47.9968 72.3812 47.7876 72.8003 47.7604C74.5026 47.6538 76.2029 47.5318 78.0688 47.4039C77.6877 48.7061 77.3404 49.8978 76.9712 51.1574ZM78.3702 46.2916C76.4883 46.4291 74.6702 46.5629 72.7244 46.7043C73.1415 45.4796 73.5167 44.3809 73.9119 43.224C75.714 43.0438 77.4961 42.8655 79.382 42.6775C79.0268 43.9488 78.7055 45.0979 78.3722 46.2916M79.6714 41.542C77.9112 41.7377 76.163 41.9315 74.2631 42.1408C74.6443 40.9045 74.9875 39.7941 75.3348 38.6682C77.085 38.5364 78.7753 38.4086 80.5714 38.2729C80.2581 39.4104 79.9767 40.4394 79.6714 41.5439M81.0244 36.3874V36.3913C80.9646 36.6277 80.9087 36.8602 80.8448 37.1141C79.1665 37.273 77.5041 37.4319 75.676 37.6063C76.0053 36.4126 76.3027 35.3352 76.61 34.2248C78.2784 34.1105 79.8869 34 81.5792 33.8818C81.5593 34.0834 81.0783 36.1704 81.0244 36.3874ZM81.9205 32.7443C80.2661 32.88 78.6715 33.0098 76.9433 33.1493C77.073 32.6068 77.1928 32.0932 77.3125 31.5952C77.4243 31.1282 77.534 30.6767 77.6518 30.2232C77.6857 30.0915 77.8134 29.9558 77.9351 29.8744C78.899 29.2369 79.8709 28.6129 80.8788 27.9618C81.5393 28.3688 82.0961 28.7137 82.7307 29.1051C82.5471 29.9306 82.3615 30.7523 82.1739 31.5952C82.0901 31.9731 82.0043 32.3548 81.9185 32.7443M87.3567 22.005C86.4606 22.6929 85.5506 23.3653 84.6566 24.0571C84.0139 24.5532 84.0139 24.6017 84.2554 25.3923C84.6585 26.7139 85.0537 28.0355 85.3151 29.4733C84.9559 29.2543 84.5947 29.0354 84.2355 28.8125C83.3274 28.2486 82.4134 27.6925 81.5134 27.1131C81.0544 26.8185 80.6512 26.8418 80.2022 27.146C79.2383 27.7952 78.2544 28.4172 77.2746 29.047C77.0151 29.2137 76.7417 29.3629 76.3646 29.5857C76.4144 29.2718 76.4264 29.0703 76.4803 28.8823C76.8016 27.7874 77.091 26.679 77.4781 25.6074C77.7396 24.8865 77.6318 24.3943 76.9812 23.9389C76.135 23.3421 75.3428 22.6716 74.5305 22.0302C74.295 21.8442 74.0735 21.6407 73.7103 21.3268C75.0175 21.2279 76.141 21.1407 77.2666 21.0613C77.552 21.0419 77.8374 21.0303 78.1227 21.038C78.7115 21.0535 79.0427 20.7939 79.2503 20.2513C79.7452 18.9549 80.294 17.6779 80.8867 16.2323C81.0923 16.647 81.2499 16.926 81.3717 17.2167C81.7828 18.1836 82.2178 19.1448 82.5691 20.1331C82.8046 20.7958 83.2197 21.0322 83.9122 21.0516C85.1495 21.0845 86.3828 21.1795 87.6181 21.2531C87.7339 21.2589 87.8496 21.2841 88.145 21.3229C87.8017 21.6213 87.5902 21.8287 87.3547 22.0069" fill="#E8E8E8"/>
<path d="M11.4437 32.7151C11.7097 31.7956 11.9078 30.9113 12.2233 30.0642C14.0425 25.1937 19.2401 21.5036 25.0585 21.9369C28.9917 22.231 32.0938 23.9781 34.4946 26.9094C34.5956 27.0309 34.6843 27.1643 34.7607 27.3015C34.9236 27.5898 34.8576 27.8545 34.6039 28.0584C34.3028 28.3015 33.9831 28.2505 33.7211 28.0035C33.5128 27.8074 33.3561 27.5623 33.1704 27.3447C30.8563 24.6408 27.8491 23.1957 24.2025 23.1271C21.1644 23.0702 18.5883 24.2781 16.4123 26.2427C14.4674 27.9996 13.2958 30.1564 12.9328 32.6975C12.7472 33.9994 12.739 33.9994 11.3777 34.0563C6.98448 34.2406 2.85115 37.5327 1.76007 41.7189C1.09594 44.2698 1.29188 46.7364 2.56859 49.0932C2.76247 49.452 3.00378 49.7913 3.24304 50.1265C3.92161 51.0775 4.726 51.5598 6.08109 51.5559C26.2857 51.4991 46.4903 51.5108 66.6949 51.5089C66.9568 51.5089 67.258 51.454 67.4704 51.5559C67.6932 51.6638 67.918 51.9108 67.9819 52.1363C68.0686 52.4402 67.8334 52.6716 67.4993 52.7265C67.2415 52.7677 66.9754 52.7716 66.7135 52.7716C54.7549 52.7755 42.7963 52.7775 30.8377 52.7775C22.3607 52.7775 13.8857 52.7598 5.4087 52.7912C4.40218 52.7951 3.65348 52.5069 2.96459 51.8422C1.45069 50.3873 0.617427 48.6148 0.219358 46.6482C-0.754159 41.8267 1.57444 36.8837 5.97796 34.3328C7.49392 33.4543 8.92739 33.0249 11.4416 32.7132" fill="#E8E8E8"/>
<path d="M4.00206 43.8388C4.21421 40.8268 5.57981 38.4846 8.69619 37.0818C8.89804 36.9913 9.12461 36.8737 9.33265 36.8791C9.55716 36.8863 9.77755 37.0257 10 37.1072C9.90113 37.2972 9.83316 37.509 9.69104 37.6683C9.60247 37.7678 9.39856 37.7823 9.25026 37.8439C6.5932 38.9389 4.87127 41.5183 5.07518 44.1031C5.09372 44.333 5.18641 44.5755 5.12667 44.7873C5.07312 44.9773 4.85891 45.133 4.71679 45.3031C4.52935 45.1746 4.23687 45.0751 4.17714 44.9104C4.05149 44.561 4.04943 44.1773 4 43.8388" fill="#E8E8E8"/>
<path d="M22 26.0719C21.7427 26.3215 21.5928 26.5336 21.3902 26.6459C21.1107 26.8018 20.7785 26.8559 20.4888 26.9931C18.2888 28.0433 16.8363 29.7631 16.1374 32.1483C16.0726 32.3687 16.0645 32.6266 15.945 32.8054C15.8356 32.9676 15.55 33.1756 15.4446 33.1277C15.2542 33.0404 15.0678 32.7971 15.0131 32.5829C14.9625 32.3833 15.0699 32.1316 15.1367 31.9112C16.024 29.0248 17.8269 26.989 20.5536 25.8307C20.8149 25.7205 21.1147 25.6352 21.3902 25.6477C21.5645 25.656 21.7285 25.8702 22 26.0678" fill="#E8E8E8"/>
<path d="M56.4773 29.3906C56.2176 29.1792 55.9959 29.0596 55.8768 28.8901C55.5741 28.4534 55.3453 27.9808 55.0331 27.5481C54.2371 26.4435 53.1528 25.5761 51.8182 24.9261C51.5894 24.8144 51.3177 24.7366 51.1533 24.5791C51.0317 24.4615 50.9507 24.1863 51.0341 24.0786C51.1533 23.9251 51.425 23.8154 51.6537 23.7775C51.8063 23.7536 52.0041 23.8732 52.1685 23.949C54.3348 24.948 55.8649 26.4315 56.873 28.3039C56.9611 28.4694 57.0374 28.6867 56.9802 28.8462C56.9159 29.0237 56.6966 29.1633 56.475 29.3886" fill="#E8E8E8"/>
<path d="M65.6334 30.3281C66.7447 30.3013 67.6877 30.6485 68.5377 31.1854C68.7237 31.3036 68.934 31.4611 68.9871 31.6293C69.0358 31.785 68.9406 32.0231 68.8012 32.143C68.706 32.2271 68.4204 32.1985 68.2323 32.1699C68.1105 32.152 68.002 32.0464 67.9002 31.9712C67.0679 31.3573 66.0917 31.13 64.9848 31.2606C64.5554 31.3125 64.0441 31.3805 64.002 30.9044C63.9644 30.4731 64.4669 30.4015 64.9007 30.3639C65.1442 30.3424 65.3899 30.3389 65.6357 30.3281" fill="#E8E8E8"/>
<path d="M74.6302 10.6702C74.7289 10.7449 74.945 10.844 75.0583 11.0028C75.6731 11.853 76.2606 12.7182 76.8587 13.5777C77.0622 13.8711 77.0748 14.1476 76.7034 14.3401C76.3677 14.5158 76.1159 14.3551 75.9438 14.1121C75.3206 13.232 74.6932 12.3538 74.1078 11.4512C73.8455 11.0476 74.0784 10.6683 74.6282 10.6702" fill="#E8E8E8"/>
<path d="M81.9987 10.2083C81.9987 10.7901 82.0027 11.3738 81.9967 11.9556C81.9928 12.2552 81.8978 12.5258 81.5399 12.5413C81.1285 12.5606 81.0099 12.2745 81.0079 11.9343C81.002 10.7688 81.004 9.60521 81 8.43967C81 8.12268 81.1147 7.88493 81.4628 7.86367C81.8781 7.83854 81.9908 8.11108 81.9908 8.46093C81.9908 9.04273 81.9908 9.62647 81.9908 10.2083H81.9987Z" fill="#E8E8E8"/>
<path d="M94.5525 22.8364C93.9065 22.8364 93.2627 22.8419 92.6167 22.8345C92.2734 22.8308 91.9856 22.6972 92.0006 22.376C92.0155 22.0809 92.2585 21.9064 92.6231 21.9064C93.8788 21.9064 95.1367 21.9009 96.3924 21.9027C96.7463 21.9027 96.9979 22.0531 97 22.3705C97.0021 22.7009 96.7292 22.8252 96.3839 22.8289C95.772 22.8345 95.1622 22.8289 94.5504 22.8289V22.8345L94.5525 22.8364Z" fill="#E8E8E8"/>
<path d="M87.4428 14.4143C87.2734 14.1818 87.0623 13.9954 87.0051 13.7783C86.9677 13.6419 87.1458 13.4478 87.2536 13.296C87.7838 12.5486 88.3249 11.805 88.8639 11.0614C88.9387 10.9596 89.0069 10.8097 89.1146 10.7789C89.3478 10.7136 89.6866 10.6156 89.8274 10.7079C89.9725 10.8039 90.0539 11.169 89.9594 11.3169C89.4336 12.1374 88.8441 12.9271 88.2765 13.7245C88.1841 13.8532 88.1072 13.9973 87.9884 14.1011C87.874 14.2029 87.7112 14.2644 87.445 14.4124" fill="#E8E8E8"/>
<path d="M67.6025 21.9042C68.1815 21.9042 68.7605 21.9042 69.3373 21.9042C69.6753 21.9042 69.9745 21.9988 69.9982 22.3236C70.0261 22.6948 69.7334 22.8339 69.3417 22.8339C68.1169 22.8376 66.89 22.8395 65.6653 22.8376C65.3316 22.8376 65.0303 22.7504 65.0023 22.422C64.97 22.0397 65.2821 21.9209 65.6631 21.9153C66.3088 21.9079 66.9567 21.9135 67.6025 21.9135V21.9023V21.9042Z" fill="#E8E8E8"/>
<path d="M72 17.4713C72.0023 18.0085 71.5672 18.2948 71.1227 18.0937C70.6829 17.8949 70.2761 17.618 69.8574 17.3719C69.3095 17.0501 68.7356 16.7614 68.2347 16.378C68.063 16.2479 67.9407 15.8125 68.0301 15.6397C68.1218 15.4622 68.5804 15.2871 68.7427 15.3723C69.7681 15.9071 70.7606 16.5058 71.7507 17.1069C71.8871 17.1897 71.9506 17.398 72 17.4737" fill="#E8E8E8"/>
<path d="M95 16.0246C94.9152 16.1266 94.8092 16.3375 94.6373 16.4441C93.7541 16.9888 92.8568 17.5103 91.9595 18.0364C91.618 18.2357 91.2953 18.201 91.0975 17.8533C90.9067 17.5195 90.9986 17.2136 91.3495 17.0143C92.2821 16.4812 93.2077 15.9273 94.1569 15.4267C94.5855 15.1995 95.0353 15.5008 94.9976 16.0269" fill="#E8E8E8"/>
<path d="M25 26.2134C24.874 26.3167 24.7279 26.5288 24.5449 26.5691C24.2644 26.6321 24.031 26.4709 24.0025 26.1345C23.9773 25.8366 24.1469 25.6719 24.4173 25.6491C24.7145 25.6246 24.916 25.7665 25 26.2134Z" fill="#E8E8E8"/>
<path d="M50 23.3425C49.7035 23.5585 49.5312 23.7763 49.3589 23.7744C49.2346 23.7744 49.0309 23.4973 49.006 23.3177C48.9613 23.0062 49.1717 22.7903 49.4351 22.8476C49.5958 22.882 49.73 23.096 49.9983 23.3425" fill="#E8E8E8"/>
<path d="M53.9142 12.7503C51.9715 12.6486 50.0739 13.7344 48.7487 15.0196C48.7035 14.9678 48.6502 14.9218 48.5887 14.8815C48.5866 14.8815 48.5825 14.8795 48.5804 14.8776C49.5672 13.4888 51.0853 12.2074 52.8557 11.9542C52.9767 11.937 52.9542 11.7605 52.8331 11.7777C50.995 12.0405 49.4339 13.3584 48.4143 14.7951C48.0676 14.6666 47.6593 14.7721 47.4357 15.0695C47.2737 15.2824 47.2449 15.5452 47.3332 15.7735C47.167 15.8885 46.9865 16.0228 46.7916 16.1763C47.5752 14.2638 48.7097 10.5232 47.2019 7.51732C46.2931 5.7065 45.5935 4.60926 45.0786 3.74605C44.9494 3.52929 44.8324 3.32788 44.7257 3.13413C44.7257 3.13413 44.7257 3.13222 44.7257 3.1303C44.6929 3.07083 44.6622 3.01137 44.6314 2.95382C44.6252 2.94039 44.617 2.92696 44.6109 2.91354C44.5862 2.8675 44.5637 2.81954 44.5411 2.7735C44.5329 2.75624 44.5247 2.73898 44.5165 2.72171C44.496 2.67951 44.4755 2.63539 44.457 2.59319C44.4488 2.57401 44.4406 2.55674 44.4324 2.53756C44.4139 2.49536 44.3955 2.45124 44.377 2.40904C44.3688 2.39177 44.3626 2.37451 44.3544 2.35533C44.336 2.30929 44.3175 2.26133 44.299 2.21338C44.2949 2.19995 44.2888 2.18652 44.2847 2.17309C44.2395 2.05033 44.2006 1.92564 44.1636 1.7952C44.1595 1.77793 44.1554 1.76259 44.1513 1.74532C44.139 1.69737 44.1267 1.64941 44.1144 1.59954C44.1083 1.57652 44.1042 1.5535 44.098 1.52856C44.0877 1.48444 44.0795 1.44032 44.0713 1.3962C44.0652 1.36935 44.0611 1.34249 44.057 1.31564C44.0488 1.27152 44.0406 1.2274 44.0344 1.18136C44.0303 1.15259 44.0262 1.12573 44.0221 1.09504C44.0159 1.049 44.0098 1.00105 44.0036 0.953089C43.9995 0.924316 43.9975 0.895542 43.9934 0.866768C43.9872 0.814976 43.9831 0.759347 43.977 0.705636C43.9749 0.67878 43.9708 0.653843 43.9688 0.626988C43.9626 0.544503 43.9564 0.462019 43.9523 0.373779C43.9523 0.373779 41.8311 2.48769 38.7232 4.66873C35.6132 6.84978 34.3412 12.6007 38.7232 15.1769C38.7232 15.1769 34.2325 13.3622 30.8066 15.6392C27.5817 17.7819 27.2022 19.9341 26 19.6042C26 19.6042 26 19.6042 26.0021 19.6061C26.0021 19.6061 26.0021 19.6061 26.0041 19.608C26.0062 19.6099 26.0103 19.6119 26.0123 19.6157C26.4288 19.9533 35.3403 27.0585 42.9882 20.9738C42.5697 21.7967 42.1758 22.7271 41.8352 23.7745C41.8352 23.7745 46.5598 21.0179 48.045 16.278C48.3281 16.2991 48.6133 16.1859 48.7897 15.9538C48.9702 15.714 48.9846 15.409 48.8553 15.1635C50.1375 13.9051 52.0064 12.8213 53.8999 12.921C54.023 12.9268 54.0373 12.7503 53.9163 12.7445" fill="#E8E8E8"/>
<path d="M84.9566 25.2753C85.3754 26.5722 85.786 27.8692 86.0576 29.2802C85.6844 29.0653 85.3091 28.8504 84.9359 28.6317C83.9924 28.0784 83.0427 27.5326 82.1075 26.964C81.6306 26.6749 81.2118 26.6977 80.7452 26.9963C79.7437 27.6334 78.7215 28.2438 77.7033 28.8618C77.4338 29.0254 77.1497 29.1718 76.7578 29.3905C76.8097 29.0824 76.8221 28.8847 76.8781 28.7002C77.2119 27.6258 77.5126 26.5399 77.9148 25.4864C78.1865 24.779 78.0745 24.2959 77.3985 23.8491C76.5194 23.2633 75.6962 22.6054 74.8522 21.9759C74.6076 21.7934 74.3774 21.5937 74 21.2856C75.3582 21.1886 76.5256 21.1031 77.6951 21.0251C77.9916 21.0042 78.2902 20.9947 78.5846 21.0023C79.1963 21.0175 79.5405 20.7627 79.7562 20.2302C80.2704 18.958 80.8406 17.7048 81.4565 16.2861C81.67 16.6931 81.8338 16.9669 81.9624 17.2522C82.3895 18.2011 82.8416 19.1443 83.2065 20.1142C83.4512 20.7646 83.8825 20.9985 84.602 21.0156C85.8855 21.0479 87.1691 21.1411 88.4526 21.2133C88.5729 21.2191 88.6931 21.2438 89 21.2818C88.6434 21.5747 88.4236 21.7781 88.1789 21.955C87.2479 22.6301 86.3023 23.29 85.3734 23.9689C84.7057 24.4557 84.7057 24.5032 84.9566 25.2791" fill="#E8E8E8"/>
</svg>
